<svg width="40" height="40" viewBox="0 0 40 40" fill="none" xmlns="http://www.w3.org/2000/svg">
<circle cx="20" cy="20" r="20" fill="blue"/>
<path d="M30.0167 29.2C28.9767 29.72 27.59 29.3733 26.8967 28.3333L24.99 25.9067H15.63L13.7233 28.3333C12.8567 29.5467 11.2967 29.72 10.0833 28.8533C9.21667 28.16 8.87 27.12 9.04333 26.2533L10.2567 19.84C10.6033 17.76 12.51 16.2 14.59 16.2H19.4433V13.6C19.4433 12.2133 20.4833 11 21.87 11H27.2433C27.7633 11 28.11 11.3467 28.11 11.8667C28.11 12.3867 27.7633 12.7333 27.2433 12.7333H22.0433C21.5233 12.7333 21.1767 13.08 21.1767 13.4267V16.2H26.03C28.11 16.2 30.0167 17.76 30.3633 19.84L31.5767 26.2533C31.75 27.4667 31.23 28.68 30.0167 29.2ZM17.71 20.5333C17.71 19.1467 16.4967 17.9333 15.11 17.9333C13.7233 17.9333 12.51 19.1467 12.51 20.5333C12.51 21.92 13.7233 23.1333 15.11 23.1333C16.4967 23.1333 17.71 21.92 17.71 20.5333ZM28.11 20.5333C28.11 20.0133 27.7633 19.6667 27.2433 19.6667H26.3767V18.8C26.3767 18.28 26.03 17.9333 25.51 17.9333C24.99 17.9333 24.6433 18.28 24.6433 18.8V19.6667H23.7767C23.2567 19.6667 22.91 20.0133 22.91 20.5333C22.91 21.0533 23.2567 21.4 23.7767 21.4H24.6433V22.2667C24.6433 22.7867 24.99 23.1333 25.51 23.1333C26.03 23.1333 26.3767 22.7867 26.3767 22.2667V21.4H27.2433C27.7633 21.4 28.11 21.0533 28.11 20.5333Z" fill="#fff"/>
</svg>
