<svg width="40" height="41" viewBox="0 0 40 41" fill="none" xmlns="http://www.w3.org/2000/svg">
<circle cx="20" cy="20.5122" r="20" fill="#3145FD"/>
<path d="M27 18C27 16.897 26.103 16 25 16H23.566L21.148 11.971C20.9698 11.6755 20.7185 11.431 20.4183 11.2609C20.118 11.0908 19.779 11.0009 19.434 11H14V13H19.434L21.234 16H13C11.897 16 11 16.897 11 18V27C11 28.103 11.897 29 13 29H25C26.103 29 27 28.103 27 27V24L31 26V19L27 21V18ZM25.002 27H13V18H25L25.001 22H25V23L25.001 23.001L25.002 27Z" fill="white"/>
<path d="M15 23H21V25H15V23Z" fill="white"/>
</svg>
