<svg width="40" height="40" viewBox="0 0 40 40" fill="none" xmlns="http://www.w3.org/2000/svg">
<circle cx="20" cy="20" r="20" fill="#3145FD"/>
<g clip-path="url(#clip0)">
<path fill-rule="evenodd" clip-rule="evenodd" d="M15.05 15.05C14.3999 15.7 13.8842 16.4718 13.5324 17.3211C13.1806 18.1704 12.9995 19.0807 12.9995 20C12.9995 20.9193 13.1806 21.8296 13.5324 22.679C13.8842 23.5283 14.3999 24.3 15.05 24.95C15.1411 25.0443 15.1915 25.1706 15.1903 25.3017C15.1892 25.4328 15.1366 25.5582 15.0439 25.6509C14.9512 25.7436 14.8258 25.7962 14.6947 25.7974C14.5636 25.7985 14.4373 25.7481 14.343 25.657C13.6001 24.9142 13.0108 24.0322 12.6087 23.0616C12.2066 22.091 11.9997 21.0506 11.9997 20C11.9997 18.9494 12.2066 17.9091 12.6087 16.9385C13.0108 15.9678 13.6001 15.0859 14.343 14.343C14.4373 14.2519 14.5636 14.2015 14.6947 14.2027C14.8258 14.2038 14.9512 14.2564 15.0439 14.3491C15.1366 14.4418 15.1892 14.5672 15.1903 14.6983C15.1915 14.8294 15.1411 14.9557 15.05 15.05ZM17.172 17.172C16.4221 17.9221 16.0008 18.9394 16.0008 20C16.0008 21.0607 16.4221 22.0779 17.172 22.828C17.2659 22.9219 17.3186 23.0492 17.3186 23.182C17.3186 23.3148 17.2659 23.4421 17.172 23.536C17.0781 23.6299 16.9508 23.6827 16.818 23.6827C16.6852 23.6827 16.5579 23.6299 16.464 23.536C15.9996 23.0717 15.6311 22.5205 15.3798 21.9137C15.1284 21.307 14.9991 20.6567 14.9991 20C14.9991 19.3433 15.1284 18.693 15.3798 18.0863C15.6311 17.4796 15.9996 16.9283 16.464 16.464C16.5579 16.3701 16.6852 16.3174 16.818 16.3174C16.9508 16.3174 17.0781 16.3701 17.172 16.464C17.2659 16.5579 17.3186 16.6852 17.3186 16.818C17.3186 16.9508 17.2659 17.0781 17.172 17.172V17.172ZM22.828 16.464C22.8744 16.4175 22.9296 16.3805 22.9904 16.3553C23.0511 16.3301 23.1162 16.3171 23.182 16.3171C23.2478 16.3171 23.3129 16.3301 23.3736 16.3553C23.4344 16.3805 23.4895 16.4175 23.536 16.464C24.0004 16.9283 24.3688 17.4796 24.6202 18.0863C24.8715 18.693 25.0009 19.3433 25.0009 20C25.0009 20.6567 24.8715 21.307 24.6202 21.9137C24.3688 22.5205 24.0004 23.0717 23.536 23.536C23.4895 23.5825 23.4343 23.6194 23.3736 23.6445C23.3128 23.6697 23.2477 23.6827 23.182 23.6827C23.1162 23.6827 23.0511 23.6697 22.9904 23.6445C22.9297 23.6194 22.8745 23.5825 22.828 23.536C22.7815 23.4895 22.7446 23.4343 22.7195 23.3736C22.6943 23.3129 22.6814 23.2478 22.6814 23.182C22.6814 23.1163 22.6943 23.0512 22.7195 22.9904C22.7446 22.9297 22.7815 22.8745 22.828 22.828C23.5779 22.0779 23.9991 21.0607 23.9991 20C23.9991 18.9394 23.5779 17.9221 22.828 17.172C22.7814 17.1256 22.7445 17.0704 22.7193 17.0097C22.6941 16.9489 22.6811 16.8838 22.6811 16.818C22.6811 16.7523 22.6941 16.6871 22.7193 16.6264C22.7445 16.5656 22.7814 16.5105 22.828 16.464ZM24.95 14.344C25.0438 14.2503 25.1709 14.1976 25.3035 14.1976C25.4361 14.1976 25.5632 14.2503 25.657 14.344C27.1571 15.8443 27.9998 17.879 27.9998 20.0005C27.9998 22.1221 27.1571 24.1568 25.657 25.657C25.5627 25.7481 25.4364 25.7985 25.3053 25.7974C25.1742 25.7962 25.0488 25.7436 24.9561 25.6509C24.8634 25.5582 24.8108 25.4328 24.8096 25.3017C24.8085 25.1706 24.8589 25.0443 24.95 24.95C25.6001 24.3 26.1158 23.5283 26.4676 22.679C26.8194 21.8296 27.0005 20.9193 27.0005 20C27.0005 19.0807 26.8194 18.1704 26.4676 17.3211C26.1158 16.4718 25.6001 15.7 24.95 15.05C24.8563 14.9563 24.8036 14.8291 24.8036 14.6965C24.8036 14.5639 24.8563 14.4368 24.95 14.343V14.344Z" fill="white"/>
<path d="M22 20C22 20.5304 21.7893 21.0391 21.4142 21.4142C21.0391 21.7893 20.5304 22 20 22C19.4696 22 18.9609 21.7893 18.5858 21.4142C18.2107 21.0391 18 20.5304 18 20C18 19.4696 18.2107 18.9609 18.5858 18.5858C18.9609 18.2107 19.4696 18 20 18C20.5304 18 21.0391 18.2107 21.4142 18.5858C21.7893 18.9609 22 19.4696 22 20V20Z" fill="white"/>
<path fill-rule="evenodd" clip-rule="evenodd" d="M20 20.5C20.1326 20.5 20.2598 20.5527 20.3536 20.6464C20.4473 20.7402 20.5 20.8674 20.5 21V27.5C20.5 27.6326 20.4473 27.7598 20.3536 27.8536C20.2598 27.9473 20.1326 28 20 28C19.8674 28 19.7402 27.9473 19.6464 27.8536C19.5527 27.7598 19.5 27.6326 19.5 27.5V21C19.5 20.8674 19.5527 20.7402 19.6464 20.6464C19.7402 20.5527 19.8674 20.5 20 20.5V20.5Z" fill="white"/>
</g>
<defs>
<clipPath id="clip0">
<rect width="16" height="16" fill="white" transform="translate(12 12)"/>
</clipPath>
</defs>
</svg>
