<svg width="1205" height="500" viewBox="0 0 1205 500" fill="none" xmlns="http://www.w3.org/2000/svg">
<path d="M126.909 14.3073C124.602 9.51126 126.846 3.81603 131.834 1.59788C136.821 -0.620269 142.743 1.53791 145.05 6.33391C147.356 11.1299 145.112 16.8252 140.125 19.0433C135.138 21.2615 129.215 19.1033 126.909 14.3073ZM129.652 13.1083C131.272 16.4655 135.387 17.9642 138.94 16.4055C142.431 14.8468 143.99 10.8901 142.369 7.47298C140.748 4.05582 136.634 2.61702 133.08 4.17572C129.589 5.73443 128.031 9.75105 129.652 13.1083Z" fill="url(#paint0_linear)"/>
<path d="M0.908711 423.123C-1.39785 418.327 0.846368 412.631 5.83354 410.413C10.8207 408.195 16.743 410.353 19.0495 415.149C21.3561 419.945 19.1119 425.64 14.1247 427.859C9.13754 430.077 3.21528 427.919 0.908711 423.123ZM3.65165 421.924C5.27248 425.281 9.3869 426.779 12.9403 425.221C16.4313 423.662 17.9898 419.705 16.3689 416.288C14.7481 412.871 10.6337 411.432 7.08033 412.991C3.58931 414.55 2.03082 418.566 3.65165 421.924Z" fill="url(#paint1_linear)"/>
<path d="M1185.91 494.137C1183.6 489.341 1185.85 483.646 1190.83 481.428C1195.82 479.21 1201.74 481.368 1204.05 486.164C1206.36 490.96 1204.11 496.655 1199.12 498.873C1194.14 501.092 1188.22 498.933 1185.91 494.137ZM1188.65 492.938C1190.27 496.296 1194.39 497.794 1197.94 496.236C1201.43 494.677 1202.99 490.72 1201.37 487.303C1199.75 483.886 1195.63 482.447 1192.08 484.006C1188.59 485.565 1187.03 489.581 1188.65 492.938Z" fill="url(#paint2_linear)"/>
<path d="M1178.91 92.9994C1176.6 88.2034 1178.85 82.5082 1183.83 80.29C1188.82 78.0719 1194.74 80.23 1197.05 85.0261C1199.36 89.8221 1197.11 95.5173 1192.12 97.7355C1187.14 99.9536 1181.22 97.7954 1178.91 92.9994ZM1181.65 91.8004C1183.27 95.1576 1187.39 96.6564 1190.94 95.0977C1194.43 93.539 1195.99 89.5823 1194.37 86.1651C1192.75 82.748 1188.63 81.3092 1185.08 82.8679C1181.59 84.4266 1180.03 88.4432 1181.65 91.8004Z" fill="url(#paint3_linear)"/>
<defs>
<linearGradient id="paint0_linear" x1="131.971" y1="1.5552" x2="139.528" y2="19.3259" gradientUnits="userSpaceOnUse">
<stop stop-color="#BC97FE" stop-opacity="0.67"/>
<stop offset="1" stop-color="#7931FD"/>
</linearGradient>
<linearGradient id="paint1_linear" x1="5.97093" y1="410.37" x2="13.5282" y2="428.141" gradientUnits="userSpaceOnUse">
<stop stop-color="#BC97FE" stop-opacity="0.67"/>
<stop offset="1" stop-color="#7931FD"/>
</linearGradient>
<linearGradient id="paint2_linear" x1="1190.97" y1="481.385" x2="1198.53" y2="499.156" gradientUnits="userSpaceOnUse">
<stop stop-color="#BC97FE" stop-opacity="0.67"/>
<stop offset="1" stop-color="#7931FD"/>
</linearGradient>
<linearGradient id="paint3_linear" x1="1183.97" y1="80.2473" x2="1191.53" y2="98.018" gradientUnits="userSpaceOnUse">
<stop stop-color="#BC97FE" stop-opacity="0.67"/>
<stop offset="1" stop-color="#7931FD"/>
</linearGradient>
</defs>
</svg>
