<svg width="40" height="41" viewBox="0 0 40 41" fill="none" xmlns="http://www.w3.org/2000/svg">
<circle cx="20" cy="20.5122" r="20" fill="#3145FD"/>
<path fill-rule="evenodd" clip-rule="evenodd" d="M24.67 22.13C26.04 23.06 27 24.32 27 26V29H31V26C31 23.82 27.43 22.53 24.67 22.13Z" fill="white"/>
<path d="M17 21C19.2091 21 21 19.2091 21 17C21 14.7909 19.2091 13 17 13C14.7909 13 13 14.7909 13 17C13 19.2091 14.7909 21 17 21Z" fill="white"/>
<path fill-rule="evenodd" clip-rule="evenodd" d="M23 21C25.21 21 27 19.21 27 17C27 14.79 25.21 13 23 13C22.53 13 22.09 13.1 21.67 13.24C22.5305 14.3042 23 15.6314 23 17C23 18.3686 22.5305 19.6958 21.67 20.76C22.09 20.9 22.53 21 23 21ZM17 22C14.33 22 9 23.34 9 26V29H25V26C25 23.34 19.67 22 17 22Z" fill="white"/>
</svg>
