<svg width="24" height="24" viewBox="0 0 24 24" fill="none" xmlns="http://www.w3.org/2000/svg">
<path fill-rule="evenodd" clip-rule="evenodd" d="M18.8751 11.0295H12.1479C12.1479 11.7291 12.1479 13.1283 12.1436 13.8279H16.0418C15.8925 14.5275 15.3628 15.5069 14.6145 16.0002C14.6138 15.9995 14.6131 16.0044 14.6116 16.0037C13.6167 16.6606 12.3037 16.8096 11.3288 16.6137C9.80069 16.3101 8.59134 15.2019 8.10032 13.7943C8.10317 13.7922 8.10532 13.7726 8.10746 13.7712C7.80012 12.8981 7.80012 11.7291 8.10746 11.0295H8.10675C8.50272 9.74359 9.74851 8.57035 11.2788 8.24923C12.5096 7.98828 13.8983 8.27092 14.9197 9.22658C15.0555 9.09365 16.7995 7.39081 16.9303 7.25229C13.4409 4.09217 7.85373 5.20384 5.7631 9.28465H5.76239C5.76239 9.28465 5.7631 9.28465 5.75882 9.29234C4.72458 11.2967 4.76747 13.6586 5.76596 15.5671C5.7631 15.5692 5.76096 15.5706 5.75882 15.5727C6.66368 17.3287 8.31045 18.6755 10.2946 19.1883C12.4024 19.741 15.0848 19.3632 16.8817 17.738C16.8824 17.7387 16.8831 17.7394 16.8838 17.7401C18.4062 16.3689 19.354 14.0329 18.8751 11.0295Z" fill="#222222"/>
</svg>
