<svg width="40" height="40" viewBox="0 0 40 40" fill="none" xmlns="http://www.w3.org/2000/svg">
<circle cx="20" cy="20" r="20" fill="#3145FD"/>
<path d="M28.154 16.514C29.004 14.475 29.06 12.776 28.041 11.757C26.908 10.625 24.189 10.965 21.304 12.322H20.963C18.926 12.322 16.943 13.06 15.471 14.361C14.227 15.494 13.321 16.966 12.924 18.607C13.207 18.27 14.793 16.4 16.604 15.381C16.662 15.381 17.114 15.098 17.114 15.098C17.057 15.098 16.209 15.948 16.04 16.118C12.075 20.194 9.755 26.366 11.567 28.177C12.755 29.366 14.907 29.083 17.398 27.725C18.473 28.235 19.663 28.46 20.963 28.46C22.662 28.46 24.248 28.007 25.606 27.101C27.022 26.195 28.042 24.782 28.665 23.139H24.249C23.683 24.214 22.38 24.951 21.022 24.951C19.096 24.951 17.51 23.365 17.454 21.554V21.385H29.005V21.215C29.005 20.932 29.062 20.592 29.062 20.367C29.061 19.005 28.721 17.703 28.154 16.514ZM12.811 27.838C11.905 26.932 12.19 25.176 13.264 23.082C13.774 24.498 14.623 25.744 15.699 26.649C16.04 26.931 16.434 27.214 16.832 27.441C15.018 28.404 13.547 28.574 12.811 27.838ZM24.417 19.232H17.51V19.175C17.623 17.419 19.264 15.89 21.191 15.89C23.003 15.89 24.475 17.306 24.588 19.175V19.232H24.417ZM27.871 16.061C27.5175 15.471 27.0784 14.9369 26.568 14.476C25.7788 13.7413 24.8562 13.1646 23.85 12.777C25.663 11.928 27.191 11.816 27.984 12.608C28.607 13.344 28.551 14.589 27.871 16.061C27.871 16.118 27.871 16.118 27.871 16.061C27.871 16.118 27.871 16.118 27.871 16.061Z" fill="white"/>
</svg>
