<svg width="24" height="24" viewBox="0 0 24 24" fill="none" xmlns="http://www.w3.org/2000/svg">
<path fill-rule="evenodd" clip-rule="evenodd" d="M20 19.4268H16.9231V13.8235C16.9231 12.2864 16.2715 11.4289 15.1031 11.4289C13.8315 11.4289 13.0769 12.3224 13.0769 13.8235V19.4268H10V9.01919H13.0769V10.1896C13.0769 10.1896 14.0423 8.42676 16.2177 8.42676C18.3938 8.42676 20 9.80856 20 12.6682C20 15.5271 20 19.4268 20 19.4268ZM5.50031 6.42676C4.67151 6.42676 4 5.75494 4 4.92645C4 4.09857 4.67151 3.42676 5.50031 3.42676C6.32849 3.42676 7 4.09857 7 4.92645C7.00061 5.75494 6.32849 6.42676 5.50031 6.42676ZM4 19.4268H7V9.42676H4V19.4268Z" fill="#222222"/>
</svg>
