<svg width="40" height="41" viewBox="0 0 40 41" fill="none" xmlns="http://www.w3.org/2000/svg">
<circle cx="20" cy="20.5122" r="20" fill="#3145FD"/>
<path d="M8.07468 19.3426L10.559 19.3421V17.7318H8.07515C8.05438 17.8872 8.03265 18.1422 8.03265 18.5374C8.03265 18.9331 8.0539 19.1881 8.07468 19.3426Z" fill="white"/>
<path d="M26.7671 32.3329L27.95 22.0375H26.4158L25.0445 32.3329H26.7671Z" fill="white"/>
<path d="M25.0444 17.8725C24.8508 16.1276 23.8639 14.2331 22.3008 13.0322C21.0466 12.0689 19.3485 11.625 17.9318 11.5239L18.0598 24.2739C18.1774 24.5804 17.9016 25.4176 18.3691 25.5234C19.322 25.7397 21.3705 24.9048 22.1828 24.2735C23.0262 23.618 24.0169 22.6112 24.5207 21.2833C24.9538 20.1439 24.9528 18.6923 25.0444 17.8725Z" fill="white"/>
<path d="M18.4041 23.7323L17.8091 23.7838L17.9318 25.6906C19.0024 25.615 21.9127 24.4793 22.7697 23.78C24.1708 22.6363 25.0152 21.0043 25.0152 18.6073C25.0152 18.3589 25.0152 17.7818 24.499 17.8725C24.1486 21.0184 21.5854 23.5066 18.4041 23.7328V23.7323Z" fill="white"/>
<path d="M26.8649 16.733L25.2376 16.7141C25.002 16.8034 25.0912 18.2724 25.0152 18.6077C24.7866 19.614 24.9349 20.1547 25.2362 20.5065H26.6982L26.7001 20.4895C26.4843 20.4423 28.3987 19.9125 28.2452 18.4292C28.0917 16.9464 26.5905 16.7424 26.8649 16.733Z" fill="white"/>
<path d="M26.8808 16.7338V16.7334H26.8767H26.8808V16.7338Z" fill="#3F3F3F"/>
<path d="M17.9318 25.6906C21.8437 25.6906 25.0152 22.5191 25.0152 18.6073C25.0152 14.6954 21.8437 11.5239 17.9318 11.5239V25.6906Z" stroke="white" stroke-width="0.5" stroke-miterlimit="10" stroke-linecap="round" stroke-linejoin="round"/>
<path d="M26.8587 17.2042C27.0447 17.2082 27.2282 17.2487 27.3986 17.3235C27.5689 17.3984 27.7229 17.506 27.8517 17.6404C27.9804 17.7747 28.0815 17.9331 28.149 18.1065C28.2166 18.2798 28.2493 18.4648 28.2454 18.6509C28.2415 18.8369 28.2009 19.0204 28.1261 19.1907C28.0512 19.3611 27.9436 19.5151 27.8093 19.6438C27.6749 19.7726 27.5165 19.8736 27.3432 19.9412C27.1698 20.0088 26.9848 20.0415 26.7987 20.0376" stroke="white" stroke-width="0.5" stroke-miterlimit="10" stroke-linecap="round" stroke-linejoin="round"/>
<path d="M10.4585 19.3425H8.38634C8.38634 19.3425 8.0369 19.3529 8.0369 18.62C8.0369 17.8871 8.38634 17.8975 8.38634 17.8975H10.4585V19.3425Z" stroke="white" stroke-width="0.5" stroke-miterlimit="10" stroke-linecap="round" stroke-linejoin="round"/>
<path d="M13.3952 18.6073H17.9318" stroke="white" stroke-width="0.5" stroke-miterlimit="10" stroke-linecap="round" stroke-linejoin="round"/>
<path d="M12.446 17.0565L17.9318 11.5239" stroke="white" stroke-width="0.5" stroke-miterlimit="10" stroke-linecap="round" stroke-linejoin="round"/>
<path d="M12.4626 20.1849L17.9318 25.6906" stroke="white" stroke-width="0.5" stroke-miterlimit="10" stroke-linecap="round" stroke-linejoin="round"/>
<path d="M21.0013 32.3329H29.7813" stroke="white" stroke-width="0.5" stroke-miterlimit="10" stroke-linecap="round" stroke-linejoin="round"/>
<path d="M25.0445 32.3329L26.4158 22.0375H27.95L26.5787 32.3329" stroke="white" stroke-width="0.5" stroke-miterlimit="10" stroke-linecap="round" stroke-linejoin="round"/>
</svg>
