<svg width="24" height="24" viewBox="0 0 24 24" fill="none" xmlns="http://www.w3.org/2000/svg">
<path fill-rule="evenodd" clip-rule="evenodd" d="M9.032 19.4268C15.0696 19.4268 18.372 14.04 18.372 9.36904C18.372 9.21569 18.372 9.06321 18.3624 8.91159C19.0048 8.41194 19.5592 7.79168 20 7.08182C19.4016 7.36783 18.7656 7.55563 18.1152 7.63833C18.8 7.1964 19.3128 6.50205 19.5584 5.68278C18.9136 6.09457 18.2088 6.38489 17.4736 6.54081C16.2304 5.11766 14.1512 5.04874 12.8288 6.38747C11.9768 7.25067 11.6144 8.53771 11.8792 9.76532C9.24 9.62231 6.7808 8.28013 5.1136 6.07217C4.2424 7.68744 4.688 9.75325 6.1304 10.7905C5.608 10.7741 5.0968 10.6225 4.64 10.3485V10.3933C4.6408 12.0758 5.7424 13.5248 7.2736 13.8582C6.7904 14.0003 6.2832 14.021 5.792 13.9185C6.2216 15.3589 7.4544 16.3453 8.8584 16.3737C7.696 17.3575 6.26 17.8916 4.7816 17.8899C4.5208 17.889 4.26 17.8727 4 17.8391C5.5016 18.8763 7.248 19.4268 9.032 19.4242" fill="#222222"/>
</svg>
